<svg xmlns="http://www.w3.org/2000/svg" viewBox="0 0 170.7548 193.4123"><defs><style>.a{fill:#ffd21b;}.b{fill:#fffdfd;}</style></defs><title>hex_motif_yellow</title><path class="a" d="M79.1,191.6669L6.61,149.6233A12.9319,12.9319,0,0,1,.166,138.4624L0,54.6625A12.9319,12.9319,0,0,1,6.4659,43.4376L78.7011,1.7325a12.9319,12.9319,0,0,1,12.954.0128l72.49,42.0437A12.9319,12.9319,0,0,1,170.5888,54.95l0.166,83.8a12.9319,12.9319,0,0,1-6.4659,11.2249L92.0536,191.68A12.9319,12.9319,0,0,1,79.1,191.6669Z"/><path class="b" d="M73.9457,43.0256l0.0467,0.083,0.1507,0.0787,0.0859-.0306c0.3563-.1275,8.7535-3.1164,11.1424-3.1606,2.7213,0.08,11.069,3.1289,11.1528,3.16l0.1008,0.021,0.1543-.0738,5.2723-13.7447a1.4061,1.4061,0,0,0-1.3122-1.909,1.4131,1.4131,0,0,0-1.3115.9025L95.0166,39.8479c-1.6685-.5907-5.0136-1.4686-6.302-1.8064l-0.1461-.0385a11.0755,11.0755,0,0,0,1.6371-2.2111,5.9915,5.9915,0,0,0,.4421-4.8415,5.4533,5.4533,0,0,0-3.0334-3.3028,5.67,5.67,0,0,0-4.4742,0A5.4533,5.4533,0,0,0,80.1069,30.95a5.9915,5.9915,0,0,0,.4421,4.8415,11.0856,11.0856,0,0,0,1.6371,2.2111l-0.1461.0385c-1.2883.3378-4.6335,1.2156-6.302,1.8064L71.3266,28.352a1.4123,1.4123,0,0,0-1.3111-.9025,1.4056,1.4056,0,0,0-1.3122,1.9086Z"/><path class="a" d="M83.5981,30.7031a2.5065,2.5065,0,0,1,3.5586,0,3.2523,3.2523,0,0,1,.6716,3.6829c-0.5063,1.1469-1.3435,2.5211-2.4445,2.5556-1.1137-.0346-1.951-1.4087-2.4573-2.5556A3.2523,3.2523,0,0,1,83.5981,30.7031Z"/><path class="b" d="M85.3774,169.9387a5.6243,5.6243,0,0,0,2.2371-.411,5.0148,5.0148,0,0,0,3.0334-3.0365,5.6837,5.6837,0,0,0-.4421-4.7086,10.7023,10.7023,0,0,0-1.6371-2.1446c0.0445-.0118.0933,0.0086,0.1461-0.0049,1.288-.3381,4.6335-1.1994,6.302-1.79l4.4112,11.5042a1.4169,1.4169,0,0,0,1.3115.9066,1.4021,1.4021,0,0,0,1.3122-1.905l-5.2424-13.6669-0.0467-.083-0.1507-.0787-0.0859.0306c-0.3563.1275-8.7535,3.1164-11.1446,3.16-2.3989-.0438-10.7961-3.0327-11.1524-3.16l-0.1-.02-0.1532.073-5.2723,13.7447a1.4061,1.4061,0,0,0,1.3122,1.909,1.4123,1.4123,0,0,0,1.3111-.9025L75.7381,157.86c1.6685,0.5907,5.014,1.4686,6.302,1.8067,0.0527,0.0135.1015,0.0264,0.1461,0.0381a11.0856,11.0856,0,0,0-1.6371,2.2111,5.9915,5.9915,0,0,0-.4421,4.8415c0.5166,1.5128,1.5937,2.154,3.0334,2.7707a5.6243,5.6243,0,0,0,2.2371.411"/><path class="a" d="M87.1567,167.0039a2.5057,2.5057,0,0,1-3.5586,0,3.2516,3.2516,0,0,1-.6716-3.6826c0.5052-1.1447,1.34-2.5161,2.4509-2.5553,1.1105,0.0392,1.9457,1.4105,2.4509,2.5553A3.2516,3.2516,0,0,1,87.1567,167.0039Z"/></svg>