<?xml version="1.0" encoding="utf-8"?>
<!-- Generator: Adobe Illustrator 19.1.0, SVG Export Plug-In . SVG Version: 6.00 Build 0)  -->
<svg version="1.1" id="logo" xmlns="http://www.w3.org/2000/svg" xmlns:xlink="http://www.w3.org/1999/xlink" x="0px" y="0px"
	 viewBox="9 286.6 630 221.4" style="enable-background:new 9 286.6 630 221.4;" xml:space="preserve">
<style type="text/css">
	.st0{fill:#FFD21B;}
	.st1{fill:#0FB9EC;}
	.st2{fill:#F8F6EC;}
	.st3{fill:#FFFFFF;}
</style>
<g id="wordmark_x3E_">
	<g id="muse">
		<path class="st0" d="M596.7,385.3c0.9,8.6,6.6,12.7,14.9,12.7c5.2,0,9.1-1.6,13.7-4.3l-0.5,6.1c-4,2.5-9,3.7-13.9,3.7
			c-12.4,0-20.7-8.2-20.7-20c0-10.7,7.2-20.2,19-20.2c11.6,0,17.7,8.6,17.7,18.3c0,1.5-0.1,2.6-0.4,3.6h-29.8V385.3z M596.8,380.3
			h23.8c-0.5-6.8-4.4-11.6-11.7-11.6C602.9,368.8,597.7,373,596.8,380.3z"/>
		<path class="st0" d="M579.1,376.1c-2.4,0-4.2-1.6-4.2-4c0-0.6,0.1-1.5,0.5-2.2c-1.4-0.9-3.9-1.4-6.8-1.4c-5.4,0-8.5,2.8-8.5,5.6
			c0,3.4,3.5,4.5,9.9,6.2c7.8,1.9,14.4,4.1,14.4,11.6c0,7.4-7.2,11.6-15.5,11.6c-5.6,0-11.4-1.8-14-4.5c-1.4-1.4-2.1-2.9-2.1-4.8
			c0-2.3,1.6-4.3,3.9-4.3c2.5,0,4.2,1.6,4.2,4c0,0.8-0.3,1.5-0.6,2.4c1.3,1,4.5,2.2,8.6,2.2c5.3,0,9.5-2.3,9.5-6
			c0-3.5-3.6-4.9-9.2-6.3c-9.4-2.2-15.2-4.4-15.2-11.6c0-5.8,5.5-11.2,14.7-11.2c5.2,0,9.8,1.6,12.2,4c1.4,1.4,2,2.8,2,4.5
			C582.9,374.3,581.3,376.1,579.1,376.1z"/>
		<path class="st0" d="M509.4,398.4c-1.2-2.1-1.8-4.8-1.8-7.9v-20.8h-6.2v-5.6h12.5v25.2c0,2.2,0.4,3.9,1.1,5.2
			c1.2,2.3,3.2,3.3,6.4,3.3c4.8,0,9.1-3.1,12.7-6.8v-21.3h-6.4v-5.6h12.6v33.3h6.2v5.5h-12.3v-7.2c-3.6,4.3-8.9,7.9-14.5,7.9
			C514.7,403.6,511.3,401.7,509.4,398.4z"/>
		<path class="st0" d="M429.8,397.4h6.2v-27.7h-6.2v-5.6H442v7.2c3.4-4.2,8.5-7.9,14.1-7.9c4.8,0,7.9,1.7,9.6,4.6
			c0.5,0.9,0.9,1.9,1.2,3c4.2-4.3,9.2-7.6,14.3-7.6c5.6,0,8.8,2.1,10.6,5.6c0.9,2.1,1.4,4.6,1.4,7.5v20.9h6.2v5.5h-18.5v-5.5h6
			v-19.7c0-2.1-0.3-3.6-0.7-4.9c-1-2.5-3-3.5-6.1-3.5c-4.6,0-8.6,2.8-12.3,6.6v21.6h6v5.5h-18.5v-5.5h6.2v-19.8
			c0-2.1-0.3-3.6-0.7-4.9c-1-2.5-3-3.5-6.2-3.5c-4.7,0-8.7,3.1-12.3,6.8v21.4h6v5.5h-18.5L429.8,397.4L429.8,397.4z"/>
	</g>
	<g id="work">
		<path class="st1" d="M256,402.9l-11.5-39h11.3l7.1,27.4h0.1l6.9-27.4H281l6.9,27.3h0.2l6.8-27.3h11l-11.6,39h-12.7l-6.3-25.5h-0.1
			l-5.8,25.5H256z"/>
		<path class="st1" d="M308.8,383.6c0-12.5,6.5-20.5,20.1-20.5s18.8,8.2,18.8,19.7c0,12.7-5.8,21-19.8,21
			C313.7,403.8,308.8,395.3,308.8,383.6z M335.9,383.2c0-8.5-2.3-11.5-7.3-11.5c-5.1,0-7.9,3.2-7.9,11.7c0,8.7,2.2,12.1,7.7,12.1
			C333.3,395.5,335.9,392.3,335.9,383.2z"/>
		<path class="st1" d="M380.5,374.2c-5.1-0.4-10.1,0.9-13.4,3.5v25.2h-11.3v-39h9.7l0.8,6.1c2.6-3.8,6.3-7,12.3-7
			c0.6,0,1.3,0.1,1.9,0.1V374.2z"/>
		<path class="st1" d="M398,377.6l12.9-13.6h12.5l-13,14l13.9,25h-12.5l-10.1-17.8l-3.7,3.7v14.2h-11.3v-56.7H398V377.6z"/>
	</g>
</g>
<g id="tagline">
	<path class="st2" d="M272.5,436l-1.1,2.5h-2l4.9-11.2h2l4.9,11.2h-2l-1.1-2.5H272.5z M277.3,434.3l-2-4.6l-2,4.6H277.3z"/>
	<path class="st2" d="M293.6,429.1v-1.7h5.4v7.4c0,1.3-0.3,2.3-1,2.9c-0.7,0.7-1.5,1-2.5,1c-1.3,0-2.4-0.5-3.3-1.4l1.1-1.5
		c0.7,0.7,1.4,1,2.1,1c0.5,0,0.9-0.2,1.3-0.5c0.3-0.3,0.5-0.8,0.5-1.5V429h-3.6V429.1z"/>
	<path class="st2" d="M314.5,437c-1.1,1.1-2.5,1.7-4.2,1.7s-3.1-0.6-4.2-1.7c-1.1-1.1-1.7-2.5-1.7-4.1s0.6-3,1.7-4.1
		s2.5-1.7,4.2-1.7s3.1,0.6,4.2,1.7c1.1,1.1,1.7,2.5,1.7,4.1S315.6,435.9,314.5,437z M313.1,430c-0.8-0.8-1.7-1.2-2.8-1.2
		c-1.1,0-2,0.4-2.8,1.2s-1.1,1.7-1.1,2.9s0.4,2.1,1.1,2.9c0.8,0.8,1.7,1.2,2.8,1.2c1.1,0,2-0.4,2.8-1.2s1.1-1.7,1.1-2.9
		S313.8,430.8,313.1,430z"/>
	<path class="st2" d="M326.5,438.5h-4.9v-11.2h4.4c0.8,0,1.4,0.1,2,0.3c0.5,0.2,1,0.4,1.2,0.7c0.5,0.6,0.8,1.2,0.8,2
		c0,0.9-0.3,1.5-0.8,2c-0.2,0.2-0.3,0.2-0.4,0.3c-0.1,0-0.2,0.1-0.4,0.2c0.7,0.1,1.2,0.5,1.7,0.9c0.4,0.5,0.6,1.1,0.6,1.8
		c0,0.8-0.3,1.5-0.8,2.1C329.1,438.2,328,438.5,326.5,438.5z M323.5,432h2.4c1.4,0,2-0.5,2-1.4c0-0.5-0.2-0.9-0.5-1.2
		c-0.3-0.3-0.8-0.4-1.5-0.4h-2.4V432z M323.5,436.8h3c0.7,0,1.2-0.1,1.6-0.3s0.6-0.6,0.6-1.2c0-1-0.8-1.5-2.4-1.5h-2.7v3H323.5z"/>
	<path class="st2" d="M346.7,428.8c-0.5,0-1,0.1-1.4,0.3s-0.5,0.6-0.5,1c0,0.5,0.2,0.8,0.5,1c0.4,0.2,1.1,0.5,2.2,0.8
		c1.1,0.3,2,0.7,2.6,1.2s0.9,1.2,0.9,2.2s-0.4,1.8-1.1,2.4c-0.7,0.6-1.7,0.9-2.9,0.9c-1.7,0-3.3-0.6-4.7-1.8l1.2-1.4
		c1.1,1,2.3,1.5,3.5,1.5c0.6,0,1.1-0.1,1.4-0.4c0.4-0.3,0.5-0.6,0.5-1s-0.2-0.8-0.5-1s-0.9-0.5-1.7-0.7c-0.8-0.2-1.4-0.4-1.9-0.5
		c-0.4-0.2-0.8-0.4-1.1-0.6c-0.7-0.5-1-1.3-1-2.3s0.4-1.8,1.1-2.4c0.8-0.6,1.7-0.8,2.8-0.8c0.7,0,1.4,0.1,2.1,0.4
		c0.7,0.2,1.3,0.6,1.8,1l-1,1.4c-0.3-0.3-0.8-0.5-1.3-0.7C347.8,428.9,347.3,428.8,346.7,428.8z"/>
	<path class="st2" d="M356.5,438.5v-11.2h1.9v4.8h5.6v-4.8h1.9v11.2H364v-4.6h-5.6v4.6H356.5z"/>
	<path class="st2" d="M373.5,436l-1.1,2.5h-2l4.9-11.2h2l4.9,11.2h-2l-1.1-2.5H373.5z M378.4,434.3l-2-4.6l-2,4.6H378.4z"/>
	<path class="st2" d="M395.8,431c0,1.8-0.8,3-2.4,3.5l2.9,4.1h-2.4l-2.7-3.8h-2.5v3.8h-1.9v-11.2h4.2c1.7,0,2.9,0.3,3.7,0.9
		C395.5,428.9,395.8,429.7,395.8,431z M393.3,432.6c0.4-0.3,0.6-0.9,0.6-1.6s-0.2-1.2-0.6-1.5s-1.1-0.4-2.1-0.4h-2.4v4h2.4
		C392.2,433.1,392.9,432.9,393.3,432.6z"/>
	<path class="st2" d="M409.4,427.4v1.8h-6v3h5.4v1.7h-5.4v3h6.2v1.8h-8v-11.2L409.4,427.4L409.4,427.4z"/>
	<path class="st2" d="M425.9,428.8c-0.5,0-1,0.1-1.4,0.3s-0.5,0.6-0.5,1c0,0.5,0.2,0.8,0.5,1c0.4,0.2,1.1,0.5,2.2,0.8
		c1.1,0.3,2,0.7,2.6,1.2s0.9,1.2,0.9,2.2s-0.4,1.8-1.1,2.4c-0.7,0.6-1.7,0.9-2.9,0.9c-1.7,0-3.3-0.6-4.7-1.8l1.2-1.4
		c1.1,1,2.3,1.5,3.5,1.5c0.6,0,1.1-0.1,1.4-0.4c0.4-0.3,0.5-0.6,0.5-1s-0.2-0.8-0.5-1s-0.9-0.5-1.7-0.7c-0.8-0.2-1.4-0.4-1.9-0.5
		c-0.4-0.2-0.8-0.4-1.1-0.6c-0.7-0.5-1-1.3-1-2.3s0.4-1.8,1.1-2.4c0.8-0.6,1.7-0.8,2.8-0.8c0.7,0,1.4,0.1,2.1,0.4
		c0.7,0.2,1.3,0.6,1.8,1l-1,1.4c-0.3-0.3-0.8-0.5-1.3-0.7C427,428.9,426.4,428.8,425.9,428.8z"/>
	<path class="st2" d="M444.9,437c-1.1,1.1-2.5,1.7-4.2,1.7s-3.1-0.6-4.2-1.7c-1.1-1.1-1.7-2.5-1.7-4.1s0.6-3,1.7-4.1
		s2.5-1.7,4.2-1.7s3.1,0.6,4.2,1.7c1.1,1.1,1.7,2.5,1.7,4.1S446.1,435.9,444.9,437z M443.6,430c-0.8-0.8-1.7-1.2-2.8-1.2
		s-2,0.4-2.8,1.2s-1.1,1.7-1.1,2.9s0.4,2.1,1.1,2.9s1.7,1.2,2.8,1.2s2-0.4,2.8-1.2s1.1-1.7,1.1-2.9S444.3,430.8,443.6,430z"/>
	<path class="st2" d="M452.1,438.5v-11.2h1.9v9.4h5.1v1.8H452.1z"/>
	<path class="st2" d="M466.4,436c0.5,0.6,1.2,0.9,2.1,0.9s1.6-0.3,2.1-0.9c0.5-0.6,0.8-1.4,0.8-2.4v-6.2h1.9v6.3
		c0,1.6-0.4,2.9-1.3,3.7c-0.9,0.9-2,1.3-3.4,1.3s-2.5-0.4-3.4-1.3c-0.9-0.9-1.3-2.1-1.3-3.7v-6.3h1.9v6.2
		C465.6,434.6,465.9,435.4,466.4,436z"/>
	<path class="st2" d="M483.4,429.1v9.5h-1.9v-9.5h-3.4v-1.7h8.7v1.7H483.4z"/>
	<path class="st2" d="M491.9,427.4h1.9v11.2h-1.9V427.4z"/>
	<path class="st2" d="M509.3,437c-1.1,1.1-2.5,1.7-4.2,1.7s-3.1-0.6-4.2-1.7c-1.1-1.1-1.7-2.5-1.7-4.1s0.6-3,1.7-4.1
		s2.5-1.7,4.2-1.7s3.1,0.6,4.2,1.7c1.1,1.1,1.7,2.5,1.7,4.1S510.4,435.9,509.3,437z M507.9,430c-0.8-0.8-1.7-1.2-2.8-1.2
		s-2,0.4-2.8,1.2s-1.1,1.7-1.1,2.9s0.4,2.1,1.1,2.9s1.7,1.2,2.8,1.2s2-0.4,2.8-1.2s1.1-1.7,1.1-2.9S508.7,430.8,507.9,430z"/>
	<path class="st2" d="M524.8,427.4h1.9v11.2h-2l-6.3-8.2v8.2h-1.9v-11.2h1.9l6.5,8.4v-8.4H524.8z"/>
	<path class="st2" d="M536.2,428.8c-0.5,0-1,0.1-1.4,0.3s-0.5,0.6-0.5,1c0,0.5,0.2,0.8,0.5,1c0.4,0.2,1.1,0.5,2.2,0.8
		c1.1,0.3,2,0.7,2.6,1.2s0.9,1.2,0.9,2.2s-0.4,1.8-1.1,2.4c-0.7,0.6-1.7,0.9-2.9,0.9c-1.7,0-3.3-0.6-4.7-1.8l1.2-1.4
		c1.1,1,2.3,1.5,3.5,1.5c0.6,0,1.1-0.1,1.4-0.4c0.4-0.3,0.5-0.6,0.5-1s-0.2-0.8-0.5-1s-0.9-0.5-1.7-0.7c-0.8-0.2-1.4-0.4-1.9-0.5
		c-0.4-0.2-0.8-0.4-1.1-0.6c-0.7-0.5-1-1.3-1-2.3s0.4-1.8,1.1-2.4c0.8-0.6,1.7-0.8,2.8-0.8c0.7,0,1.4,0.1,2.1,0.4
		c0.7,0.2,1.3,0.6,1.8,1l-1,1.4c-0.3-0.3-0.8-0.5-1.3-0.7C537.3,428.9,536.8,428.8,536.2,428.8z"/>
	<path class="st2" d="M555.3,429.1v3.1h5v1.7h-5v4.6h-1.9v-11.2h7.5v1.8L555.3,429.1L555.3,429.1z"/>
	<path class="st2" d="M566.1,427.4h1.9v11.2h-1.9V427.4z"/>
	<path class="st2" d="M583.1,431c0,1.8-0.8,3-2.4,3.5l2.9,4.1h-2.4l-2.7-3.8H576v3.8h-1.9v-11.2h4.2c1.7,0,2.9,0.3,3.7,0.9
		C582.8,428.9,583.1,429.7,583.1,431z M580.5,432.6c0.4-0.3,0.6-0.9,0.6-1.6s-0.2-1.2-0.6-1.5c-0.4-0.3-1.1-0.4-2.1-0.4H576v4h2.4
		C579.4,433.1,580.2,432.9,580.5,432.6z"/>
	<path class="st2" d="M590.7,438.5h-1.9v-11.2h2.9l3.4,7l3.4-7h2.9v11.2h-1.9v-8.7l-3.9,7.8h-1.1l-3.9-7.8L590.7,438.5L590.7,438.5z
		"/>
</g>
<g id="icon">
	<path id="stroke" class="st3" d="M99.5,506l-83-48.1c-4.6-2.6-7.4-7.5-7.4-12.8L9,349.2c0-5.3,2.8-10.2,7.4-12.8l82.7-47.8
		c4.6-2.6,10.2-2.6,14.8,0l83,48.1c4.6,2.6,7.4,7.5,7.4,12.8l0.2,95.9c0,5.3-2.8,10.2-7.4,12.8l-82.7,47.7
		C109.8,508.7,104.1,508.7,99.5,506z"/>
	<path class="st0" d="M192.5,355.4c0-4.6-2.5-8.9-6.5-11.2l-7.5-4.3l-20.8,54.3l-0.7,0.3l-0.5-0.1c-0.4-0.1-37.5-13.7-49.5-14
		c-10.6,0.2-47.9,13.5-49.5,14l-0.4,0.1l-0.7-0.3l-0.2-0.4l-20.8-54.6l-8,4.6c-4,2.3-6.5,6.6-6.5,11.3l0.2,84.3
		c0,4.6,2.5,8.9,6.5,11.2l8,4.6l20.9-54.6l0.7-0.3l0.5,0.1c1.6,0.6,38.9,13.8,49.5,14c10.6-0.2,47.9-13.5,49.5-14l0.4-0.1l0.7,0.3
		l0.2,0.4l20.8,54.3l7.5-4.3c4-2.3,6.5-6.6,6.5-11.3L192.5,355.4z"/>
	<path class="st0" d="M107.1,335.8c-3,0.1-5.7,1.2-7.9,3.3c-4.3,4.1-5.5,10.6-3,16.4c2.2,5.1,6,11.2,10.9,11.3
		c4.9-0.2,8.6-6.3,10.9-11.3c2.5-5.7,1.3-12.3-3-16.4C112.7,337,110.1,335.9,107.1,335.8z"/>
	<path class="st0" d="M64.2,379.7c7.4-2.6,22.2-6.5,27.9-8c0.3-0.1,0.5-0.1,0.7-0.2c-2.9-3.1-5.4-6.4-7.3-9.8
		c-3.7-6.6-4.4-14.4-2-21.5c2.3-6.7,7.1-11.9,13.5-14.7c3.1-1.3,6.4-2,9.9-2s6.9,0.7,9.9,2c6.4,2.7,11.2,8,13.5,14.7
		c2.4,7.1,1.7,14.9-2,21.5c-1.9,3.4-4.4,6.7-7.3,9.8c0.2,0.1,0.4,0.1,0.7,0.2c5.7,1.5,20.5,5.4,27.9,8l17.7-46.2L113,301.9
		c-4-2.3-9-2.3-13,0l-53.7,31L64.2,379.7z"/>
	<path class="st0" d="M149.9,415.2c-7.4,2.6-22.2,6.5-28,8c-0.2,0.1-0.5,0.1-0.7,0.2c2.9,3.1,5.4,6.4,7.3,9.8
		c3.7,6.6,4.4,14.5,2,21.5c-2.3,6.7-7.1,11.9-13.5,14.6c-3.1,1.3-6.4,2.1-9.9,2.1l0,0l0,0c-3.5,0-6.8-0.7-9.9-2.1
		c-6.4-2.7-11.2-8-13.5-14.7c-2.4-7.1-1.7-14.9,2-21.5c1.9-3.4,4.4-6.7,7.3-9.8c-0.2-0.1-0.4-0.1-0.7-0.2c-5.7-1.5-20.6-5.4-28-8
		l-17.8,46.5l54,31.3c4,2.3,9,2.3,13,0l54.2-31.3L149.9,415.2z"/>
	<path class="st0" d="M107.1,459.1c3-0.1,5.6-1.2,7.9-3.3c4.3-4.1,5.5-10.6,3-16.4c-2.2-5.1-6-11.2-10.9-11.3
		c-4.9,0.2-8.6,6.3-10.9,11.3c-2.5,5.7-1.3,12.3,3,16.4C101.4,457.9,104.1,459,107.1,459.1z"/>
</g>
</svg>
