<?xml version="1.0" encoding="utf-8"?>
<!-- Generator: Adobe Illustrator 19.1.0, SVG Export Plug-In . SVG Version: 6.00 Build 0)  -->
<svg version="1.1" id="logo" xmlns="http://www.w3.org/2000/svg" xmlns:xlink="http://www.w3.org/1999/xlink" x="0px" y="0px"
	 viewBox="0 0 630 221.4" style="enable-background:new 0 0 630 221.4;" xml:space="preserve">
<style type="text/css">
	.st0{fill:#FFD21B;}
	.st1{fill:#0FB9EC;}
	.st2{fill:#808184;}
	.st3{fill:#FFFFFF;}
</style>
<g id="wordmark_x3E_">
	<g id="muse">
		<path class="st0" d="M587.7,98.7c0.9,8.6,6.6,12.7,14.9,12.7c5.2,0,9.1-1.6,13.7-4.3l-0.5,6.1c-4,2.5-9,3.7-13.9,3.7
			c-12.4,0-20.7-8.2-20.7-20c0-10.7,7.2-20.2,19-20.2c11.6,0,17.7,8.6,17.7,18.3c0,1.5-0.1,2.6-0.4,3.6H587.7z M587.8,93.7h23.8
			c-0.5-6.8-4.4-11.6-11.7-11.6C593.9,82.2,588.7,86.4,587.8,93.7z"/>
		<path class="st0" d="M570.1,89.5c-2.4,0-4.2-1.6-4.2-4c0-0.6,0.1-1.5,0.5-2.2c-1.4-0.9-3.9-1.4-6.8-1.4c-5.4,0-8.5,2.8-8.5,5.6
			c0,3.4,3.5,4.5,9.9,6.2c7.8,1.9,14.4,4.1,14.4,11.6c0,7.4-7.2,11.6-15.5,11.6c-5.6,0-11.4-1.8-14-4.5c-1.4-1.4-2.1-2.9-2.1-4.8
			c0-2.3,1.6-4.3,3.9-4.3c2.5,0,4.2,1.6,4.2,4c0,0.8-0.3,1.5-0.6,2.4c1.3,1,4.5,2.2,8.6,2.2c5.3,0,9.5-2.3,9.5-6
			c0-3.5-3.6-4.9-9.2-6.3C550.8,97.4,545,95.2,545,88c0-5.8,5.5-11.2,14.7-11.2c5.2,0,9.8,1.6,12.2,4c1.4,1.4,2,2.8,2,4.5
			C573.9,87.7,572.3,89.5,570.1,89.5z"/>
		<path class="st0" d="M500.4,111.8c-1.2-2.1-1.8-4.8-1.8-7.9V83.1h-6.2v-5.6h12.5v25.2c0,2.2,0.4,3.9,1.1,5.2
			c1.2,2.3,3.2,3.3,6.4,3.3c4.8,0,9.1-3.1,12.7-6.8V83.1h-6.4v-5.6h12.6v33.3h6.2v5.5h-12.3v-7.2c-3.6,4.3-8.9,7.9-14.5,7.9
			C505.7,117,502.3,115.1,500.4,111.8z"/>
		<path class="st0" d="M420.8,110.8h6.2V83.1h-6.2v-5.6H433v7.2c3.4-4.2,8.5-7.9,14.1-7.9c4.8,0,7.9,1.7,9.6,4.6
			c0.5,0.9,0.9,1.9,1.2,3c4.2-4.3,9.2-7.6,14.3-7.6c5.6,0,8.8,2.1,10.6,5.6c0.9,2.1,1.4,4.6,1.4,7.5v20.9h6.2v5.5h-18.5v-5.5h6V91.1
			c0-2.1-0.3-3.6-0.7-4.9c-1-2.5-3-3.5-6.1-3.5c-4.6,0-8.6,2.8-12.3,6.6v21.6h6v5.5h-18.5v-5.5h6.2V91.1c0-2.1-0.3-3.6-0.7-4.9
			c-1-2.5-3-3.5-6.2-3.5c-4.7,0-8.7,3.1-12.3,6.8v21.4h6v5.5h-18.5V110.8z"/>
	</g>
	<g id="work">
		<path class="st1" d="M247,116.3l-11.5-39h11.3l7.1,27.4h0.1l6.9-27.4H272l6.9,27.3h0.2l6.8-27.3h11l-11.6,39h-12.7l-6.3-25.5h-0.1
			l-5.8,25.5H247z"/>
		<path class="st1" d="M299.8,97c0-12.5,6.5-20.5,20.1-20.5c13.6,0,18.8,8.2,18.8,19.7c0,12.7-5.8,21-19.8,21
			C304.7,117.2,299.8,108.7,299.8,97z M326.9,96.6c0-8.5-2.3-11.5-7.3-11.5c-5.1,0-7.9,3.2-7.9,11.7c0,8.7,2.2,12.1,7.7,12.1
			C324.3,108.9,326.9,105.7,326.9,96.6z"/>
		<path class="st1" d="M371.5,87.6c-5.1-0.4-10.1,0.9-13.4,3.5v25.2h-11.3v-39h9.7l0.8,6.1c2.6-3.8,6.3-7,12.3-7
			c0.6,0,1.3,0.1,1.9,0.1V87.6z"/>
		<path class="st1" d="M389,91l12.9-13.6h12.5l-13,14l13.9,25h-12.5l-10.1-17.8l-3.7,3.7v14.2h-11.3V59.8H389V91z"/>
	</g>
</g>
<g id="tagline">
	<path class="st2" d="M263.5,149.4l-1.1,2.5h-2l4.9-11.2h2l4.9,11.2h-2l-1.1-2.5H263.5z M268.3,147.7l-2-4.6l-2,4.6H268.3z"/>
	<path class="st2" d="M284.6,142.5v-1.7h5.4v7.4c0,1.3-0.3,2.3-1,2.9c-0.7,0.7-1.5,1-2.5,1c-1.3,0-2.4-0.5-3.3-1.4l1.1-1.5
		c0.7,0.7,1.4,1,2.1,1c0.5,0,0.9-0.2,1.3-0.5c0.3-0.3,0.5-0.8,0.5-1.5v-5.8H284.6z"/>
	<path class="st2" d="M305.5,150.4c-1.1,1.1-2.5,1.7-4.2,1.7c-1.7,0-3.1-0.6-4.2-1.7c-1.1-1.1-1.7-2.5-1.7-4.1c0-1.6,0.6-3,1.7-4.1
		c1.1-1.1,2.5-1.7,4.2-1.7c1.7,0,3.1,0.6,4.2,1.7c1.1,1.1,1.7,2.5,1.7,4.1C307.2,147.9,306.6,149.3,305.5,150.4z M304.1,143.4
		c-0.8-0.8-1.7-1.2-2.8-1.2c-1.1,0-2,0.4-2.8,1.2c-0.8,0.8-1.1,1.7-1.1,2.9s0.4,2.1,1.1,2.9c0.8,0.8,1.7,1.2,2.8,1.2
		c1.1,0,2-0.4,2.8-1.2s1.1-1.7,1.1-2.9S304.8,144.2,304.1,143.4z"/>
	<path class="st2" d="M317.5,151.9h-4.9v-11.2h4.4c0.8,0,1.4,0.1,2,0.3c0.5,0.2,1,0.4,1.2,0.7c0.5,0.6,0.8,1.2,0.8,2
		c0,0.9-0.3,1.5-0.8,2c-0.2,0.2-0.3,0.2-0.4,0.3c-0.1,0-0.2,0.1-0.4,0.2c0.7,0.1,1.2,0.5,1.7,0.9c0.4,0.5,0.6,1.1,0.6,1.8
		c0,0.8-0.3,1.5-0.8,2.1C320.1,151.6,319,151.9,317.5,151.9z M314.5,145.4h2.4c1.4,0,2-0.5,2-1.4c0-0.5-0.2-0.9-0.5-1.2
		s-0.8-0.4-1.5-0.4h-2.4V145.4z M314.5,150.2h3c0.7,0,1.2-0.1,1.6-0.3c0.4-0.2,0.6-0.6,0.6-1.2c0-1-0.8-1.5-2.4-1.5h-2.7V150.2z"/>
	<path class="st2" d="M337.7,142.2c-0.5,0-1,0.1-1.4,0.3s-0.5,0.6-0.5,1c0,0.5,0.2,0.8,0.5,1c0.4,0.2,1.1,0.5,2.2,0.8s2,0.7,2.6,1.2
		c0.6,0.5,0.9,1.2,0.9,2.2c0,1-0.4,1.8-1.1,2.4c-0.7,0.6-1.7,0.9-2.9,0.9c-1.7,0-3.3-0.6-4.7-1.8l1.2-1.4c1.1,1,2.3,1.5,3.5,1.5
		c0.6,0,1.1-0.1,1.4-0.4c0.4-0.3,0.5-0.6,0.5-1c0-0.4-0.2-0.8-0.5-1c-0.3-0.2-0.9-0.5-1.7-0.7s-1.4-0.4-1.9-0.5
		c-0.4-0.2-0.8-0.4-1.1-0.6c-0.7-0.5-1-1.3-1-2.3c0-1,0.4-1.8,1.1-2.4c0.8-0.6,1.7-0.8,2.8-0.8c0.7,0,1.4,0.1,2.1,0.4
		c0.7,0.2,1.3,0.6,1.8,1l-1,1.4c-0.3-0.3-0.8-0.5-1.3-0.7C338.8,142.3,338.3,142.2,337.7,142.2z"/>
	<path class="st2" d="M347.5,151.9v-11.2h1.9v4.8h5.6v-4.8h1.9v11.2h-1.9v-4.6h-5.6v4.6H347.5z"/>
	<path class="st2" d="M364.5,149.4l-1.1,2.5h-2l4.9-11.2h2l4.9,11.2h-2l-1.1-2.5H364.5z M369.4,147.7l-2-4.6l-2,4.6H369.4z"/>
	<path class="st2" d="M386.8,144.4c0,1.8-0.8,3-2.4,3.5l2.9,4.1h-2.4l-2.7-3.8h-2.5v3.8h-1.9v-11.2h4.2c1.7,0,2.9,0.3,3.7,0.9
		S386.8,143.1,386.8,144.4z M384.3,146c0.4-0.3,0.6-0.9,0.6-1.6s-0.2-1.2-0.6-1.5c-0.4-0.3-1.1-0.4-2.1-0.4h-2.4v4h2.4
		C383.2,146.5,383.9,146.3,384.3,146z"/>
	<path class="st2" d="M400.4,140.8v1.8h-6v3h5.4v1.7h-5.4v3h6.2v1.8h-8v-11.2H400.4z"/>
	<path class="st2" d="M416.9,142.2c-0.5,0-1,0.1-1.4,0.3s-0.5,0.6-0.5,1c0,0.5,0.2,0.8,0.5,1c0.4,0.2,1.1,0.5,2.2,0.8s2,0.7,2.6,1.2
		c0.6,0.5,0.9,1.2,0.9,2.2c0,1-0.4,1.8-1.1,2.4c-0.7,0.6-1.7,0.9-2.9,0.9c-1.7,0-3.3-0.6-4.7-1.8l1.2-1.4c1.1,1,2.3,1.5,3.5,1.5
		c0.6,0,1.1-0.1,1.4-0.4c0.4-0.3,0.5-0.6,0.5-1c0-0.4-0.2-0.8-0.5-1c-0.3-0.2-0.9-0.5-1.7-0.7s-1.4-0.4-1.9-0.5
		c-0.4-0.2-0.8-0.4-1.1-0.6c-0.7-0.5-1-1.3-1-2.3c0-1,0.4-1.8,1.1-2.4c0.8-0.6,1.7-0.8,2.8-0.8c0.7,0,1.4,0.1,2.1,0.4
		c0.7,0.2,1.3,0.6,1.8,1l-1,1.4c-0.3-0.3-0.8-0.5-1.3-0.7C418,142.3,417.4,142.2,416.9,142.2z"/>
	<path class="st2" d="M435.9,150.4c-1.1,1.1-2.5,1.7-4.2,1.7s-3.1-0.6-4.2-1.7c-1.1-1.1-1.7-2.5-1.7-4.1c0-1.6,0.6-3,1.7-4.1
		c1.1-1.1,2.5-1.7,4.2-1.7s3.1,0.6,4.2,1.7c1.1,1.1,1.7,2.5,1.7,4.1C437.6,147.9,437.1,149.3,435.9,150.4z M434.6,143.4
		c-0.8-0.8-1.7-1.2-2.8-1.2s-2,0.4-2.8,1.2s-1.1,1.7-1.1,2.9s0.4,2.1,1.1,2.9s1.7,1.2,2.8,1.2s2-0.4,2.8-1.2
		c0.8-0.8,1.1-1.7,1.1-2.9S435.3,144.2,434.6,143.4z"/>
	<path class="st2" d="M443.1,151.9v-11.2h1.9v9.4h5.1v1.8H443.1z"/>
	<path class="st2" d="M457.4,149.4c0.5,0.6,1.2,0.9,2.1,0.9c0.9,0,1.6-0.3,2.1-0.9c0.5-0.6,0.8-1.4,0.8-2.4v-6.2h1.9v6.3
		c0,1.6-0.4,2.9-1.3,3.7c-0.9,0.9-2,1.3-3.4,1.3s-2.5-0.4-3.4-1.3c-0.9-0.9-1.3-2.1-1.3-3.7v-6.3h1.9v6.2
		C456.6,148,456.9,148.8,457.4,149.4z"/>
	<path class="st2" d="M474.4,142.5v9.5h-1.9v-9.5h-3.4v-1.7h8.7v1.7H474.4z"/>
	<path class="st2" d="M482.9,140.8h1.9v11.2h-1.9V140.8z"/>
	<path class="st2" d="M500.3,150.4c-1.1,1.1-2.5,1.7-4.2,1.7s-3.1-0.6-4.2-1.7c-1.1-1.1-1.7-2.5-1.7-4.1c0-1.6,0.6-3,1.7-4.1
		c1.1-1.1,2.5-1.7,4.2-1.7s3.1,0.6,4.2,1.7c1.1,1.1,1.7,2.5,1.7,4.1C502,147.9,501.4,149.3,500.3,150.4z M498.9,143.4
		c-0.8-0.8-1.7-1.2-2.8-1.2s-2,0.4-2.8,1.2s-1.1,1.7-1.1,2.9s0.4,2.1,1.1,2.9s1.7,1.2,2.8,1.2s2-0.4,2.8-1.2
		c0.8-0.8,1.1-1.7,1.1-2.9S499.7,144.2,498.9,143.4z"/>
	<path class="st2" d="M515.8,140.8h1.9v11.2h-2l-6.3-8.2v8.2h-1.9v-11.2h1.9l6.5,8.4V140.8z"/>
	<path class="st2" d="M527.2,142.2c-0.5,0-1,0.1-1.4,0.3s-0.5,0.6-0.5,1c0,0.5,0.2,0.8,0.5,1c0.4,0.2,1.1,0.5,2.2,0.8s2,0.7,2.6,1.2
		c0.6,0.5,0.9,1.2,0.9,2.2c0,1-0.4,1.8-1.1,2.4c-0.7,0.6-1.7,0.9-2.9,0.9c-1.7,0-3.3-0.6-4.7-1.8l1.2-1.4c1.1,1,2.3,1.5,3.5,1.5
		c0.6,0,1.1-0.1,1.4-0.4c0.4-0.3,0.5-0.6,0.5-1c0-0.4-0.2-0.8-0.5-1c-0.3-0.2-0.9-0.5-1.7-0.7s-1.4-0.4-1.9-0.5
		c-0.4-0.2-0.8-0.4-1.1-0.6c-0.7-0.5-1-1.3-1-2.3c0-1,0.4-1.8,1.1-2.4c0.8-0.6,1.7-0.8,2.8-0.8c0.7,0,1.4,0.1,2.1,0.4
		c0.7,0.2,1.3,0.6,1.8,1l-1,1.4c-0.3-0.3-0.8-0.5-1.3-0.7C528.3,142.3,527.8,142.2,527.2,142.2z"/>
	<path class="st2" d="M546.3,142.5v3.1h5v1.7h-5v4.6h-1.9v-11.2h7.5l0,1.8H546.3z"/>
	<path class="st2" d="M557.1,140.8h1.9v11.2h-1.9V140.8z"/>
	<path class="st2" d="M574.1,144.4c0,1.8-0.8,3-2.4,3.5l2.9,4.1h-2.4l-2.7-3.8H567v3.8h-1.9v-11.2h4.2c1.7,0,2.9,0.3,3.7,0.9
		S574.1,143.1,574.1,144.4z M571.5,146c0.4-0.3,0.6-0.9,0.6-1.6s-0.2-1.2-0.6-1.5c-0.4-0.3-1.1-0.4-2.1-0.4H567v4h2.4
		C570.4,146.5,571.2,146.3,571.5,146z"/>
	<path class="st2" d="M581.7,151.9h-1.9v-11.2h2.9l3.4,7l3.4-7h2.9v11.2h-1.9v-8.7l-3.9,7.8h-1.1l-3.9-7.8V151.9z"/>
</g>
<g id="icon">
	<path id="stroke" class="st3" d="M90.5,219.4l-83-48.1c-4.6-2.6-7.4-7.5-7.4-12.8L0,62.6c0-5.3,2.8-10.2,7.4-12.8L90.1,2
		c4.6-2.6,10.2-2.6,14.8,0l83,48.1c4.6,2.6,7.4,7.5,7.4,12.8l0.2,95.9c0,5.3-2.8,10.2-7.4,12.8l-82.7,47.7
		C100.8,222.1,95.1,222.1,90.5,219.4z"/>
	<path class="st0" d="M183.5,68.8c0-4.6-2.5-8.9-6.5-11.2l-7.5-4.3l-20.8,54.3l-0.7,0.3l-0.5-0.1c-0.4-0.1-37.5-13.7-49.5-14
		c-10.6,0.2-47.9,13.5-49.5,14l-0.4,0.1l-0.7-0.3l-0.2-0.4L26.4,52.6l-8,4.6c-4,2.3-6.5,6.6-6.5,11.3l0.2,84.3
		c0,4.6,2.5,8.9,6.5,11.2l8,4.6l20.9-54.6l0.7-0.3l0.5,0.1c1.6,0.6,38.9,13.8,49.5,14c10.6-0.2,47.9-13.5,49.5-14l0.4-0.1l0.7,0.3
		l0.2,0.4l20.8,54.3l7.5-4.3c4-2.3,6.5-6.6,6.5-11.3L183.5,68.8z"/>
	<path class="st0" d="M98.1,49.2c-3,0.1-5.7,1.2-7.9,3.3c-4.3,4.1-5.5,10.6-3,16.4c2.2,5.1,6,11.2,10.9,11.3
		c4.9-0.2,8.6-6.3,10.9-11.3c2.5-5.7,1.3-12.3-3-16.4C103.7,50.4,101.1,49.3,98.1,49.2z"/>
	<path class="st0" d="M55.2,93.1c7.4-2.6,22.2-6.5,27.9-8c0.3-0.1,0.5-0.1,0.7-0.2c-2.9-3.1-5.4-6.4-7.3-9.8
		c-3.7-6.6-4.4-14.4-2-21.5c2.3-6.7,7.1-11.9,13.5-14.7c3.1-1.3,6.4-2,9.9-2c3.5,0,6.9,0.7,9.9,2c6.4,2.7,11.2,8,13.5,14.7
		c2.4,7.1,1.7,14.9-2,21.5c-1.9,3.4-4.4,6.7-7.3,9.8c0.2,0.1,0.4,0.1,0.7,0.2c5.7,1.5,20.5,5.4,27.9,8l17.7-46.2L104,15.3
		c-4-2.3-9-2.3-13,0l-53.7,31L55.2,93.1z"/>
	<path class="st0" d="M140.9,128.6c-7.4,2.6-22.2,6.5-28,8c-0.2,0.1-0.5,0.1-0.7,0.2c2.9,3.1,5.4,6.4,7.3,9.8
		c3.7,6.6,4.4,14.5,2,21.5c-2.3,6.7-7.1,11.9-13.5,14.6c-3.1,1.3-6.4,2.1-9.9,2.1h0h0c-3.5,0-6.8-0.7-9.9-2.1
		c-6.4-2.7-11.2-8-13.5-14.7c-2.4-7.1-1.7-14.9,2-21.5c1.9-3.4,4.4-6.7,7.3-9.8c-0.2-0.1-0.4-0.1-0.7-0.2c-5.7-1.5-20.6-5.4-28-8
		l-17.8,46.5l54,31.3c4,2.3,9,2.3,13,0l54.2-31.3L140.9,128.6z"/>
	<path class="st0" d="M98.1,172.5c3-0.1,5.6-1.2,7.9-3.3c4.3-4.1,5.5-10.6,3-16.4c-2.2-5.1-6-11.2-10.9-11.3
		c-4.9,0.2-8.6,6.3-10.9,11.3c-2.5,5.7-1.3,12.3,3,16.4C92.4,171.3,95.1,172.4,98.1,172.5z"/>
</g>
</svg>
