<?xml version="1.0" encoding="utf-8"?>
<!-- Generator: Adobe Illustrator 19.1.0, SVG Export Plug-In . SVG Version: 6.00 Build 0)  -->
<svg version="1.1" id="logo" xmlns="http://www.w3.org/2000/svg" xmlns:xlink="http://www.w3.org/1999/xlink" x="0px" y="0px"
	 viewBox="27 859.9 626.9 221.4" style="enable-background:new 27 859.9 626.9 221.4;" xml:space="preserve">
<style type="text/css">
	.st0{fill:#FDD43A;}
	.st1{fill:#22BFD1;}
	.st2{fill:#808184;}
	.st3{fill:#F8F6EC;}
</style>
<g id="wordmark_x3E_">
	<g id="muse">
		<path class="st0" d="M614.7,958.5c0.9,8.6,6.6,12.7,14.9,12.7c5.2,0,9.1-1.6,13.7-4.3l-0.5,6.1c-4,2.5-9,3.7-13.9,3.7
			c-12.4,0-20.7-8.2-20.7-20c0-10.7,7.2-20.2,19-20.2c11.6,0,17.7,8.6,17.7,18.3c0,1.5-0.1,2.6-0.4,3.6L614.7,958.5L614.7,958.5z
			 M614.8,953.5h23.8c-0.5-6.8-4.4-11.6-11.7-11.6C620.9,942,615.7,946.2,614.8,953.5z"/>
		<path class="st0" d="M597.1,949.3c-2.4,0-4.2-1.6-4.2-4c0-0.6,0.1-1.5,0.5-2.2c-1.4-0.9-3.9-1.4-6.8-1.4c-5.4,0-8.5,2.8-8.5,5.6
			c0,3.4,3.5,4.5,9.9,6.2c7.8,1.9,14.4,4.1,14.4,11.6c0,7.4-7.2,11.6-15.5,11.6c-5.6,0-11.4-1.8-14-4.5c-1.4-1.4-2.1-2.9-2.1-4.8
			c0-2.3,1.6-4.3,3.9-4.3c2.5,0,4.2,1.6,4.2,4c0,0.8-0.3,1.5-0.6,2.4c1.3,1,4.5,2.2,8.6,2.2c5.3,0,9.5-2.3,9.5-6
			c0-3.5-3.6-4.9-9.2-6.3c-9.4-2.2-15.2-4.4-15.2-11.6c0-5.8,5.5-11.2,14.7-11.2c5.2,0,9.8,1.6,12.2,4c1.4,1.4,2,2.8,2,4.5
			C600.9,947.5,599.3,949.3,597.1,949.3z"/>
		<path class="st0" d="M527.4,971.6c-1.2-2.1-1.8-4.8-1.8-7.9v-20.8h-6.2v-5.6h12.5v25.2c0,2.2,0.4,3.9,1.1,5.2
			c1.2,2.3,3.2,3.3,6.4,3.3c4.8,0,9.1-3.1,12.7-6.8v-21.3h-6.4v-5.6h12.6v33.3h6.2v5.5h-12.3v-7.2c-3.6,4.3-8.9,7.9-14.5,7.9
			C532.7,976.8,529.3,974.9,527.4,971.6z"/>
		<path class="st0" d="M447.8,970.6h6.2v-27.7h-6.2v-5.6H460v7.2c3.4-4.2,8.5-7.9,14.1-7.9c4.8,0,7.9,1.7,9.6,4.6
			c0.5,0.9,0.9,1.9,1.2,3c4.2-4.3,9.2-7.6,14.3-7.6c5.6,0,8.8,2.1,10.6,5.6c0.9,2.1,1.4,4.6,1.4,7.5v20.9h6.2v5.5h-18.5v-5.5h6
			v-19.7c0-2.1-0.3-3.6-0.7-4.9c-1-2.5-3-3.5-6.1-3.5c-4.6,0-8.6,2.8-12.3,6.6v21.6h6v5.5h-18.5v-5.5h6.2v-19.8
			c0-2.1-0.3-3.6-0.7-4.9c-1-2.5-3-3.5-6.2-3.5c-4.7,0-8.7,3.1-12.3,6.8v21.4h6v5.5h-18.5L447.8,970.6L447.8,970.6z"/>
	</g>
	<g id="work">
		<path class="st1" d="M274,976.1l-11.5-39h11.3l7.1,27.4h0.1l6.9-27.4H299l6.9,27.3h0.2l6.8-27.3h11l-11.6,39h-12.7l-6.3-25.5h-0.1
			l-5.8,25.5H274z"/>
		<path class="st1" d="M326.8,956.8c0-12.5,6.5-20.5,20.1-20.5s18.8,8.2,18.8,19.7c0,12.7-5.8,21-19.8,21
			C331.7,977,326.8,968.5,326.8,956.8z M353.9,956.4c0-8.5-2.3-11.5-7.3-11.5c-5.1,0-7.9,3.2-7.9,11.7c0,8.7,2.2,12.1,7.7,12.1
			C351.3,968.7,353.9,965.5,353.9,956.4z"/>
		<path class="st1" d="M398.5,947.4c-5.1-0.4-10.1,0.9-13.4,3.5v25.2h-11.3v-39h9.7l0.8,6.1c2.6-3.8,6.3-7,12.3-7
			c0.6,0,1.3,0.1,1.9,0.1V947.4z"/>
		<path class="st1" d="M416,950.8l12.9-13.6h12.5l-13,14l13.9,25h-12.5l-10.1-17.8l-3.7,3.7v14.2h-11.3v-56.7H416V950.8z"/>
	</g>
</g>
<g id="tagline">
	<path class="st2" d="M256.6,1009.8l-1.3,3h-2.4l5.9-13.5h2.4l5.9,13.5h-2.4l-1.3-3H256.6z M262.4,1007.8l-2.4-5.6l-2.4,5.6H262.4z"
		/>
	<path class="st2" d="M282.1,1001.5v-2.1h6.5v8.9c0,1.6-0.4,2.8-1.2,3.5c-0.8,0.8-1.8,1.2-3,1.2c-1.6,0-2.9-0.6-4-1.7l1.3-1.8
		c0.8,0.8,1.7,1.2,2.5,1.2c0.6,0,1.1-0.2,1.6-0.6c0.4-0.4,0.6-1,0.6-1.8v-7h-4.3V1001.5z"/>
	<path class="st2" d="M307.4,1011.1c-1.3,1.3-3,2.1-5.1,2.1s-3.7-0.7-5.1-2.1c-1.3-1.3-2.1-3-2.1-5s0.7-3.6,2.1-5
		c1.3-1.3,3-2.1,5.1-2.1s3.7,0.7,5.1,2.1c1.4,1.4,2.1,3,2.1,5S308.7,1009.7,307.4,1011.1z M305.7,1002.6c-1-1-2.1-1.4-3.4-1.4
		s-2.4,0.5-3.4,1.4c-1,1-1.3,2.1-1.3,3.5s0.5,2.5,1.3,3.5c1,1,2.1,1.4,3.4,1.4s2.4-0.5,3.4-1.4c1-1,1.3-2.1,1.3-3.5
		S306.5,1003.6,305.7,1002.6z"/>
	<path class="st2" d="M321.9,1012.9H316v-13.5h5.3c1,0,1.7,0.1,2.4,0.4c0.6,0.2,1.2,0.5,1.4,0.8c0.6,0.7,1,1.4,1,2.4
		c0,1.1-0.4,1.8-1,2.4c-0.2,0.2-0.4,0.2-0.5,0.4c-0.1,0-0.2,0.1-0.5,0.2c0.8,0.1,1.4,0.6,2.1,1.1c0.5,0.6,0.7,1.3,0.7,2.2
		c0,1-0.4,1.8-1,2.5C325,1012.5,323.7,1012.9,321.9,1012.9z M318.2,1005h2.9c1.7,0,2.4-0.6,2.4-1.7c0-0.6-0.2-1.1-0.6-1.4
		c-0.4-0.4-1-0.5-1.8-0.5h-2.9V1005z M318.2,1010.8h3.6c0.8,0,1.4-0.1,1.9-0.4c0.5-0.2,0.7-0.7,0.7-1.4c0-1.2-1-1.8-2.9-1.8h-3.3
		L318.2,1010.8L318.2,1010.8L318.2,1010.8z"/>
	<path class="st2" d="M346.3,1001.1c-0.6,0-1.2,0.1-1.7,0.4c-0.5,0.2-0.6,0.7-0.6,1.2c0,0.6,0.2,1,0.6,1.2c0.5,0.2,1.3,0.6,2.7,1
		c1.3,0.4,2.4,0.8,3.1,1.4c0.7,0.6,1.1,1.4,1.1,2.7c0,1.3-0.5,2.2-1.3,2.9c-0.8,0.7-2.1,1.1-3.5,1.1c-2.1,0-4-0.7-5.7-2.2l1.4-1.7
		c1.3,1.2,2.8,1.8,4.2,1.8c0.7,0,1.3-0.1,1.7-0.5c0.5-0.4,0.6-0.7,0.6-1.2s-0.2-1-0.6-1.2c-0.4-0.2-1.1-0.6-2.1-0.8
		c-1-0.2-1.7-0.5-2.3-0.6c-0.5-0.2-1-0.5-1.3-0.7c-0.8-0.6-1.2-1.6-1.2-2.8c0-1.2,0.5-2.2,1.3-2.9c1-0.7,2.1-1,3.4-1
		c0.8,0,1.7,0.1,2.5,0.5c0.8,0.2,1.6,0.7,2.2,1.2l-1.2,1.7c-0.4-0.4-1-0.6-1.6-0.8C347.6,1001.3,347,1001.1,346.3,1001.1z"/>
	<path class="st2" d="M358.1,1012.9v-13.5h2.3v5.8h6.8v-5.8h2.3v13.5h-2.3v-5.6h-6.8v5.6H358.1z"/>
	<path class="st2" d="M378.6,1009.8l-1.3,3h-2.4l5.9-13.5h2.4l5.9,13.5h-2.4l-1.3-3H378.6z M384.6,1007.8l-2.4-5.6l-2.4,5.6H384.6z"
		/>
	<path class="st2" d="M405.6,1003.8c0,2.2-1,3.6-2.9,4.2l3.5,5h-2.9l-3.3-4.6h-3v4.6h-2.3v-13.5h5.1c2.1,0,3.5,0.4,4.5,1.1
		C405.2,1001.3,405.6,1002.2,405.6,1003.8z M402.6,1005.7c0.5-0.4,0.7-1.1,0.7-1.9s-0.2-1.4-0.7-1.8c-0.5-0.4-1.3-0.5-2.5-0.5h-2.9
		v4.8h2.9C401.2,1006.3,402.1,1006.1,402.6,1005.7z"/>
	<path class="st2" d="M422,999.5v2.2h-7.2v3.6h6.5v2.1h-6.5v3.6h7.5v2.2h-9.7v-13.5h9.4L422,999.5L422,999.5z"/>
	<path class="st2" d="M441.9,1001.1c-0.6,0-1.2,0.1-1.7,0.4c-0.5,0.2-0.6,0.7-0.6,1.2c0,0.6,0.2,1,0.6,1.2c0.5,0.2,1.3,0.6,2.7,1
		c1.3,0.4,2.4,0.8,3.1,1.4c0.7,0.6,1.1,1.4,1.1,2.7c0,1.3-0.5,2.2-1.3,2.9c-0.8,0.7-2.1,1.1-3.5,1.1c-2.1,0-4-0.7-5.7-2.2l1.4-1.7
		c1.3,1.2,2.8,1.8,4.2,1.8c0.7,0,1.3-0.1,1.7-0.5c0.5-0.4,0.6-0.7,0.6-1.2s-0.2-1-0.6-1.2c-0.4-0.2-1.1-0.6-2.1-0.8
		c-1-0.2-1.7-0.5-2.3-0.6c-0.5-0.2-1-0.5-1.3-0.7c-0.8-0.6-1.2-1.6-1.2-2.8c0-1.2,0.5-2.2,1.3-2.9c1-0.7,2.1-1,3.4-1
		c0.8,0,1.7,0.1,2.5,0.5c0.8,0.2,1.6,0.7,2.2,1.2l-1.2,1.7c-0.4-0.4-1-0.6-1.6-0.8C443.3,1001.3,442.5,1001.1,441.9,1001.1z"/>
	<path class="st2" d="M464.9,1011.1c-1.3,1.3-3,2.1-5.1,2.1s-3.7-0.7-5.1-2.1c-1.3-1.3-2.1-3-2.1-5s0.7-3.6,2.1-5
		c1.3-1.3,3-2.1,5.1-2.1s3.7,0.7,5.1,2.1c1.3,1.3,2.1,3,2.1,5S466.3,1009.7,464.9,1011.1z M463.3,1002.6c-1-1-2.1-1.4-3.4-1.4
		s-2.4,0.5-3.4,1.4c-1,1-1.3,2.1-1.3,3.5s0.5,2.5,1.3,3.5s2.1,1.4,3.4,1.4s2.4-0.5,3.4-1.4c1-1,1.3-2.1,1.3-3.5
		S464.1,1003.6,463.3,1002.6z"/>
	<path class="st2" d="M473.6,1012.9v-13.5h2.3v11.4h6.2v2.2L473.6,1012.9L473.6,1012.9z"/>
	<path class="st2" d="M490.8,1009.8c0.6,0.7,1.4,1.1,2.5,1.1s1.9-0.4,2.5-1.1s1-1.7,1-2.9v-7.5h2.3v7.6c0,1.9-0.5,3.5-1.6,4.5
		c-1.1,1.1-2.4,1.6-4.1,1.6s-3-0.5-4.1-1.6s-1.6-2.5-1.6-4.5v-7.6h2.3v7.5C489.9,1008.2,490.2,1009.1,490.8,1009.8z"/>
	<path class="st2" d="M511.4,1001.5v11.5h-2.3v-11.5H505v-2.1h10.5v2.1H511.4z"/>
	<path class="st2" d="M521.6,999.5h2.3v13.5h-2.3V999.5z"/>
	<path class="st2" d="M542.7,1011.1c-1.3,1.3-3,2.1-5.1,2.1s-3.7-0.7-5.1-2.1c-1.3-1.3-2.1-3-2.1-5s0.7-3.6,2.1-5s3-2.1,5.1-2.1
		s3.7,0.7,5.1,2.1c1.4,1.4,2.1,3,2.1,5S544,1009.7,542.7,1011.1z M541,1002.6c-1-1-2.1-1.4-3.4-1.4c-1.3,0-2.4,0.5-3.4,1.4
		c-1,1-1.3,2.1-1.3,3.5s0.5,2.5,1.3,3.5s2.1,1.4,3.4,1.4c1.3,0,2.4-0.5,3.4-1.4c1-1,1.3-2.1,1.3-3.5S541.9,1003.6,541,1002.6z"/>
	<path class="st2" d="M561.4,999.5h2.3v13.5h-2.4l-7.6-9.9v9.9h-2.3v-13.5h2.3l7.9,10.1v-10.1H561.4z"/>
	<path class="st2" d="M575.1,1001.1c-0.6,0-1.2,0.1-1.7,0.4c-0.5,0.2-0.6,0.7-0.6,1.2c0,0.6,0.2,1,0.6,1.2c0.5,0.2,1.3,0.6,2.7,1
		c1.3,0.4,2.4,0.8,3.1,1.4c0.7,0.6,1.1,1.4,1.1,2.7c0,1.3-0.5,2.2-1.3,2.9c-0.8,0.7-2.1,1.1-3.5,1.1c-2.1,0-4-0.7-5.7-2.2l1.4-1.7
		c1.3,1.2,2.8,1.8,4.2,1.8c0.7,0,1.3-0.1,1.7-0.5c0.5-0.4,0.6-0.7,0.6-1.2s-0.2-1-0.6-1.2c-0.4-0.2-1.1-0.6-2.1-0.8
		c-1-0.2-1.7-0.5-2.3-0.6c-0.5-0.2-1-0.5-1.3-0.7c-0.8-0.6-1.2-1.6-1.2-2.8c0-1.2,0.5-2.2,1.3-2.9c1-0.7,2.1-1,3.4-1
		c0.8,0,1.7,0.1,2.5,0.5c0.8,0.2,1.6,0.7,2.2,1.2l-1.2,1.7c-0.4-0.4-1-0.6-1.6-0.8C576.5,1001.3,575.9,1001.1,575.1,1001.1z"/>
	<path class="st2" d="M598.2,1001.5v3.7h6v2.1h-6v5.6h-2.3v-13.5h9.1v2.2L598.2,1001.5L598.2,1001.5z"/>
	<path class="st2" d="M611.3,999.5h2.3v13.5h-2.3V999.5z"/>
	<path class="st2" d="M631.8,1003.8c0,2.2-1,3.6-2.9,4.2l3.5,5h-2.9l-3.3-4.6h-3v4.6h-2.3v-13.5h5.1c2.1,0,3.5,0.4,4.5,1.1
		C631.4,1001.3,631.8,1002.2,631.8,1003.8z M628.7,1005.7c0.5-0.4,0.7-1.1,0.7-1.9s-0.2-1.4-0.7-1.8c-0.5-0.4-1.3-0.5-2.5-0.5h-2.9
		v4.8h2.9C627.3,1006.3,628.3,1006.1,628.7,1005.7z"/>
	<path class="st2" d="M641,1012.9h-2.3v-13.5h3.5l4.1,8.5l4.1-8.5h3.5v13.5h-2.3v-10.5l-4.7,9.4h-1.3l-4.7-9.4v10.5H641z"/>
</g>
<path id="stroke" class="st3" d="M117.5,1079.2l-83-48.1c-4.6-2.6-7.4-7.5-7.4-12.8L27,922.4c0-5.3,2.8-10.2,7.4-12.8l82.7-47.8
	c4.6-2.6,10.2-2.6,14.8,0l83,48.1c4.6,2.6,7.4,7.5,7.4,12.8l0.2,95.9c0,5.3-2.8,10.2-7.4,12.8l-82.7,47.7
	C127.8,1081.9,122.1,1081.9,117.5,1079.2z"/>
<path class="st0" d="M210.5,928.6c0-4.6-2.5-8.9-6.5-11.2l-7.5-4.3l-20.8,54.3l-0.7,0.3l-0.5-0.1c-0.4-0.1-37.5-13.7-49.5-14
	c-10.6,0.2-47.9,13.5-49.5,14l-0.4,0.1l-0.7-0.3l-0.2-0.4l-20.8-54.6l-8,4.6c-4,2.3-6.5,6.6-6.5,11.3l0.2,84.3
	c0,4.6,2.5,8.9,6.5,11.2l8,4.6l20.9-54.6l0.7-0.3l0.5,0.1c1.6,0.6,38.9,13.8,49.5,14c10.6-0.2,47.9-13.5,49.5-14l0.4-0.1l0.7,0.3
	l0.2,0.4l20.8,54.3l7.5-4.3c4-2.3,6.5-6.6,6.5-11.3L210.5,928.6z"/>
<path class="st0" d="M125.1,909c-3,0.1-5.7,1.2-7.9,3.3c-4.3,4.1-5.5,10.6-3,16.4c2.2,5.1,6,11.2,10.9,11.3
	c4.9-0.2,8.6-6.3,10.9-11.3c2.5-5.7,1.3-12.3-3-16.4C130.7,910.2,128.1,909.1,125.1,909z"/>
<path class="st0" d="M82.2,952.9c7.4-2.6,22.2-6.5,27.9-8c0.3-0.1,0.5-0.1,0.7-0.2c-2.9-3.1-5.4-6.4-7.3-9.8
	c-3.7-6.6-4.4-14.4-2-21.5c2.3-6.7,7.1-11.9,13.5-14.7c3.1-1.3,6.4-2,9.9-2s6.9,0.7,9.9,2c6.4,2.7,11.2,8,13.5,14.7
	c2.4,7.1,1.7,14.9-2,21.5c-1.9,3.4-4.4,6.7-7.3,9.8c0.2,0.1,0.4,0.1,0.7,0.2c5.7,1.5,20.5,5.4,27.9,8l17.7-46.2L131,875.1
	c-4-2.3-9-2.3-13,0l-53.7,31L82.2,952.9z"/>
<path class="st0" d="M167.9,988.4c-7.4,2.6-22.2,6.5-28,8c-0.2,0.1-0.5,0.1-0.7,0.2c2.9,3.1,5.4,6.4,7.3,9.8
	c3.7,6.6,4.4,14.5,2,21.5c-2.3,6.7-7.1,11.9-13.5,14.6c-3.1,1.3-6.4,2.1-9.9,2.1l0,0l0,0c-3.5,0-6.8-0.7-9.9-2.1
	c-6.4-2.7-11.2-8-13.5-14.7c-2.4-7.1-1.7-14.9,2-21.5c1.9-3.4,4.4-6.7,7.3-9.8c-0.2-0.1-0.4-0.1-0.7-0.2c-5.7-1.5-20.6-5.4-28-8
	l-17.8,46.5l54,31.3c4,2.3,9,2.3,13,0l54.2-31.3L167.9,988.4z"/>
<path class="st0" d="M125.1,1032.3c3-0.1,5.6-1.2,7.9-3.3c4.3-4.1,5.5-10.6,3-16.4c-2.2-5.1-6-11.2-10.9-11.3
	c-4.9,0.2-8.6,6.3-10.9,11.3c-2.5,5.7-1.3,12.3,3,16.4C119.4,1031.1,122.1,1032.2,125.1,1032.3z"/>
</svg>
