<?xml version="1.0" encoding="utf-8"?>
<!-- Generator: Adobe Illustrator 19.1.0, SVG Export Plug-In . SVG Version: 6.00 Build 0)  -->
<svg version="1.1" id="Layer_1" xmlns="http://www.w3.org/2000/svg" xmlns:xlink="http://www.w3.org/1999/xlink" x="0px" y="0px"
	 viewBox="0 0 171.9 194.5" style="enable-background:new 0 0 171.9 194.5;" xml:space="preserve">
<style type="text/css">
	.st0{fill:#FFD21B;}
</style>
<path class="st0" d="M171.6,55.2c0-4.6-2.5-8.9-6.5-11.2l-7.5-4.3L136.8,94l-0.7,0.3l-0.5-0.1c-0.4-0.1-37.5-13.7-49.5-14
	c-10.6,0.2-47.9,13.5-49.5,14l-0.4,0.1L35.5,94l-0.2-0.4L14.5,39l-8,4.6C2.5,45.9,0,50.2,0,54.9l0.2,84.3c0,4.6,2.5,8.9,6.5,11.2
	l8,4.6l20.9-54.6l0.7-0.3l0.5,0.1c1.6,0.6,38.9,13.8,49.5,14c10.6-0.2,47.9-13.5,49.5-14l0.4-0.1l0.7,0.3l0.2,0.4l20.8,54.3l7.5-4.3
	c4-2.3,6.5-6.6,6.5-11.3L171.6,55.2z"/>
<path class="st0" d="M86.2,35.6c-3,0.1-5.7,1.2-7.9,3.3c-4.3,4.1-5.5,10.6-3,16.4c2.2,5.1,6,11.2,10.9,11.3
	c4.9-0.2,8.6-6.3,10.9-11.3c2.5-5.7,1.3-12.3-3-16.4C91.8,36.8,89.2,35.7,86.2,35.6z"/>
<path class="st0" d="M43.3,79.5c7.4-2.6,22.2-6.5,27.9-8c0.3-0.1,0.5-0.1,0.7-0.2c-2.9-3.1-5.4-6.4-7.3-9.8
	c-3.7-6.6-4.4-14.4-2-21.5c2.3-6.7,7.1-11.9,13.5-14.7c3.1-1.3,6.4-2,9.9-2s6.9,0.7,9.9,2c6.4,2.7,11.2,8,13.5,14.7
	c2.4,7.1,1.7,14.9-2,21.5c-1.9,3.4-4.4,6.7-7.3,9.8c0.2,0.1,0.4,0.1,0.7,0.2c5.7,1.5,20.5,5.4,27.9,8l17.7-46.2L92.1,1.7
	c-4-2.3-9-2.3-13,0l-53.7,31L43.3,79.5z"/>
<path class="st0" d="M129,115c-7.4,2.6-22.2,6.5-28,8c-0.2,0.1-0.5,0.1-0.7,0.2c2.9,3.1,5.4,6.4,7.3,9.8c3.7,6.6,4.4,14.5,2,21.5
	c-2.3,6.7-7.1,11.9-13.5,14.6c-3.1,1.3-6.4,2.1-9.9,2.1l0,0l0,0c-3.5,0-6.8-0.7-9.9-2.1c-6.4-2.7-11.2-8-13.5-14.7
	c-2.4-7.1-1.7-14.9,2-21.5c1.9-3.4,4.4-6.7,7.3-9.8c-0.2-0.1-0.4-0.1-0.7-0.2c-5.7-1.5-20.6-5.4-28-8l-17.8,46.5l54,31.3
	c4,2.3,9,2.3,13,0l54.2-31.3L129,115z"/>
<path class="st0" d="M86.2,158.9c3-0.1,5.6-1.2,7.9-3.3c4.3-4.1,5.5-10.6,3-16.4c-2.2-5.1-6-11.2-10.9-11.3
	c-4.9,0.2-8.6,6.3-10.9,11.3c-2.5,5.7-1.3,12.3,3,16.4C80.5,157.7,83.2,158.8,86.2,158.9z"/>
</svg>
