<?xml version="1.0" encoding="utf-8"?>
<!-- Generator: Adobe Illustrator 19.1.0, SVG Export Plug-In . SVG Version: 6.00 Build 0)  -->
<svg version="1.1" id="Layer_1" xmlns="http://www.w3.org/2000/svg" xmlns:xlink="http://www.w3.org/1999/xlink" x="0px" y="0px"
	 viewBox="0 0 478.4 233.3" style="enable-background:new 0 0 478.4 233.3;" xml:space="preserve">
<style type="text/css">
	.st0{fill:none;stroke:#16B9ED;stroke-width:2.1405;stroke-miterlimit:10;}
	.st1{fill:#FFD21B;}
</style>
<g>
	<g>
		<path class="st0" d="M45.1,201.3L5.2,178.1c-2.5-1.4-4-4.1-4-7L1.1,125c0-2.9,1.5-5.6,4.1-7L44.9,95c2.5-1.5,5.6-1.4,8.1,0
			l39.9,23.1c2.5,1.4,4,4.1,4,7l0.1,46.1c0,2.9-1.5,5.6-4.1,7l-39.7,22.9C50.7,202.7,47.6,202.7,45.1,201.3z"/>
		<path class="st0" d="M153.4,201.3l-39.9-23.1c-2.5-1.4-4-4.1-4-7l-0.1-46.1c0-2.9,1.5-5.6,4.1-7L153.2,95c2.5-1.5,5.6-1.4,8.1,0
			l39.9,23.1c2.5,1.4,4,4.1,4,7l0.1,46.1c0,2.9-1.5,5.6-4.1,7l-39.7,22.9C159,202.7,155.9,202.7,153.4,201.3z"/>
	</g>
	<g>
		<path class="st0" d="M99.3,108.4L59.4,85.3c-2.5-1.4-4-4.1-4-7l-0.1-46.1c0-2.9,1.5-5.6,4.1-7L99,2.2c2.5-1.5,5.6-1.4,8.1,0
			l39.9,23.1c2.5,1.4,4,4.1,4,7l0.1,46.1c0,2.9-1.5,5.6-4.1,7l-39.7,22.9C104.9,109.9,101.8,109.8,99.3,108.4z"/>
		<path class="st0" d="M207.6,108.4l-39.9-23.1c-2.5-1.4-4-4.1-4-7l-0.1-46.1c0-2.9,1.5-5.6,4.1-7l39.7-22.9c2.5-1.5,5.6-1.4,8.1,0
			l39.9,23.1c2.5,1.4,4,4.1,4,7l0.1,46.1c0,2.9-1.5,5.6-4.1,7l-39.7,22.9C213.2,109.9,210.1,109.8,207.6,108.4z"/>
	</g>
	<g>
		<path class="st0" d="M262.9,201.3L223,178.1c-2.5-1.4-4-4.1-4-7l-0.1-46.1c0-2.9,1.5-5.6,4.1-7L262.7,95c2.5-1.5,5.6-1.4,8.1,0
			l39.9,23.1c2.5,1.4,4,4.1,4,7l0.1,46.1c0,2.9-1.5,5.6-4.1,7L271,201.3C268.5,202.7,265.4,202.7,262.9,201.3z"/>
		<path class="st0" d="M371.2,201.3l-39.9-23.1c-2.5-1.4-4-4.1-4-7l-0.1-46.1c0-2.9,1.5-5.6,4.1-7L371,95c2.5-1.5,5.6-1.4,8.1,0
			l39.9,23.1c2.5,1.4,4,4.1,4,7l0.1,46.1c0,2.9-1.5,5.6-4.1,7l-39.7,22.9C376.8,202.7,373.7,202.7,371.2,201.3z"/>
	</g>
	<g>
		<path class="st0" d="M317.1,108.4l-39.9-23.1c-2.5-1.4-4-4.1-4-7L273,32.1c0-2.9,1.5-5.6,4.1-7l39.7-22.9c2.5-1.5,5.6-1.4,8.1,0
			l39.9,23.1c2.5,1.4,4,4.1,4,7l0.1,46.1c0,2.9-1.5,5.6-4.1,7l-39.7,22.9C322.7,109.9,319.6,109.8,317.1,108.4z"/>
		<path class="st0" d="M425.4,108.4l-39.9-23.1c-2.5-1.4-4-4.1-4-7l-0.1-46.1c0-2.9,1.5-5.6,4.1-7l39.7-22.9c2.5-1.5,5.6-1.4,8.1,0
			l39.9,23.1c2.5,1.4,4,4.1,4,7l0.1,46.1c0,2.9-1.5,5.6-4.1,7l-39.7,22.9C431,109.9,427.9,109.8,425.4,108.4z"/>
	</g>
	<g>
		<g>
			<path class="st1" d="M45.1,139.3L5.2,116.2c-2.5-1.4-4-4.1-4-7L1.1,63.1c0-2.9,1.5-5.6,4.1-7l39.7-22.9c2.5-1.5,5.6-1.4,8.1,0
				l39.9,23.1c2.5,1.4,4,4.1,4,7l0.1,46.1c0,2.9-1.5,5.6-4.1,7l-39.7,22.9C50.7,140.8,47.6,140.8,45.1,139.3z"/>
			<path class="st1" d="M153.4,139.3l-39.9-23.1c-2.5-1.4-4-4.1-4-7l-0.1-46.1c0-2.9,1.5-5.6,4.1-7l39.7-22.9c2.5-1.5,5.6-1.4,8.1,0
				l39.9,23.1c2.5,1.4,4,4.1,4,7l0.1,46.1c0,2.9-1.5,5.6-4.1,7l-39.7,22.9C159,140.8,155.9,140.8,153.4,139.3z"/>
		</g>
		<g>
			<path class="st1" d="M99.3,232.2l-39.9-23.1c-2.5-1.4-4-4.1-4-7L55.2,156c0-2.9,1.5-5.6,4.1-7L99,126c2.5-1.5,5.6-1.4,8.1,0
				l39.9,23.1c2.5,1.4,4,4.1,4,7l0.1,46.1c0,2.9-1.5,5.6-4.1,7l-39.7,22.9C104.9,233.7,101.8,233.7,99.3,232.2z"/>
			<path class="st1" d="M207.6,232.2l-39.9-23.1c-2.5-1.4-4-4.1-4-7l-0.1-46.1c0-2.9,1.5-5.6,4.1-7l39.7-22.9c2.5-1.5,5.6-1.4,8.1,0
				l39.9,23.1c2.5,1.4,4,4.1,4,7l0.1,46.1c0,2.9-1.5,5.6-4.1,7l-39.7,22.9C213.2,233.7,210.1,233.7,207.6,232.2z"/>
		</g>
	</g>
	<g>
		<g>
			<path class="st1" d="M262.9,139.3L223,116.2c-2.5-1.4-4-4.1-4-7l-0.1-46.1c0-2.9,1.5-5.6,4.1-7l39.7-22.9c2.5-1.5,5.6-1.4,8.1,0
				l39.9,23.1c2.5,1.4,4,4.1,4,7l0.1,46.1c0,2.9-1.5,5.6-4.1,7L271,139.4C268.5,140.8,265.4,140.8,262.9,139.3z"/>
			<path class="st1" d="M371.2,139.3l-39.9-23.1c-2.5-1.4-4-4.1-4-7l-0.1-46.1c0-2.9,1.5-5.6,4.1-7L371,33.1c2.5-1.5,5.6-1.4,8.1,0
				L419,56.3c2.5,1.4,4,4.1,4,7l0.1,46.1c0,2.9-1.5,5.6-4.1,7l-39.7,22.9C376.8,140.8,373.7,140.8,371.2,139.3z"/>
		</g>
		<g>
			<path class="st1" d="M317.1,232.2l-39.9-23.1c-2.5-1.4-4-4.1-4-7L273,156c0-2.9,1.5-5.6,4.1-7l39.7-22.9c2.5-1.5,5.6-1.4,8.1,0
				l39.9,23.1c2.5,1.4,4,4.1,4,7l0.1,46.1c0,2.9-1.5,5.6-4.1,7l-39.7,22.9C322.7,233.7,319.6,233.7,317.1,232.2z"/>
			<path class="st1" d="M425.4,232.2l-39.9-23.1c-2.5-1.4-4-4.1-4-7l-0.1-46.1c0-2.9,1.5-5.6,4.1-7l39.7-22.9c2.5-1.5,5.6-1.4,8.1,0
				l39.9,23.1c2.5,1.4,4,4.1,4,7l0.1,46.1c0,2.9-1.5,5.6-4.1,7l-39.7,22.9C431,233.7,427.9,233.7,425.4,232.2z"/>
		</g>
	</g>
</g>
</svg>
