<?xml version="1.0" encoding="utf-8"?>
<!-- Generator: Adobe Illustrator 19.1.0, SVG Export Plug-In . SVG Version: 6.00 Build 0)  -->
<svg version="1.1" id="Layer_1" xmlns="http://www.w3.org/2000/svg" xmlns:xlink="http://www.w3.org/1999/xlink" x="0px" y="0px"
	 viewBox="0 0 478.4 233.3" style="enable-background:new 0 0 478.4 233.3;" xml:space="preserve">
<style type="text/css">
	.st0{fill:none;stroke:#16B9ED;stroke-width:2.2689;stroke-miterlimit:10;}
	.st1{fill:none;stroke:#FFD21B;stroke-width:2.1405;stroke-miterlimit:10;}
</style>
<g>
	<g>
		<g>
			<path class="st0" d="M45.5,137.7L5.6,114.6c-2.5-1.4-4-4.1-4-7L1.5,61.5c0-2.9,1.5-5.6,4.1-7l39.7-22.9c2.5-1.5,5.6-1.4,8.1,0
				l39.9,23.1c2.5,1.4,4,4.1,4,7l0.1,46.1c0,2.9-1.5,5.6-4.1,7l-39.7,22.9C51.1,139.2,48,139.2,45.5,137.7z"/>
			<path class="st0" d="M153.9,137.7L114,114.6c-2.5-1.4-4-4.1-4-7l-0.1-46.1c0-2.9,1.5-5.6,4.1-7l39.7-22.9c2.5-1.5,5.6-1.4,8.1,0
				l39.9,23.1c2.5,1.4,4,4.1,4,7l0.1,46.1c0,2.9-1.5,5.6-4.1,7L162,137.7C159.5,139.2,156.4,139.2,153.9,137.7z"/>
		</g>
		<g>
			<path class="st0" d="M99.7,230.6l-39.9-23.1c-2.5-1.4-4-4.1-4-7l-0.1-46.1c0-2.9,1.5-5.6,4.1-7l39.7-22.9c2.5-1.5,5.6-1.4,8.1,0
				l39.9,23.1c2.5,1.4,4,4.1,4,7l0.1,46.1c0,2.9-1.5,5.6-4.1,7l-39.7,22.9C105.3,232.1,102.2,232.1,99.7,230.6z"/>
			<path class="st0" d="M208,230.6l-39.9-23.1c-2.5-1.4-4-4.1-4-7l-0.1-46.1c0-2.9,1.5-5.6,4.1-7l39.7-22.9c2.5-1.5,5.6-1.4,8.1,0
				l39.9,23.1c2.5,1.4,4,4.1,4,7l0.1,46.1c0,2.9-1.5,5.6-4.1,7l-39.7,22.9C213.7,232.1,210.6,232.1,208,230.6z"/>
		</g>
	</g>
	<g>
		<g>
			<path class="st0" d="M263.3,137.7l-39.9-23.1c-2.5-1.4-4-4.1-4-7l-0.1-46.1c0-2.9,1.5-5.6,4.1-7l39.7-22.9c2.5-1.5,5.6-1.4,8.1,0
				l39.9,23.1c2.5,1.4,4,4.1,4,7l0.1,46.1c0,2.9-1.5,5.6-4.1,7l-39.7,22.9C268.9,139.2,265.8,139.2,263.3,137.7z"/>
			<path class="st0" d="M371.7,137.7l-39.9-23.1c-2.5-1.4-4-4.1-4-7l-0.1-46.1c0-2.9,1.5-5.6,4.1-7l39.7-22.9c2.5-1.5,5.6-1.4,8.1,0
				l39.9,23.1c2.5,1.4,4,4.1,4,7l0.1,46.1c0,2.9-1.5,5.6-4.1,7l-39.7,22.9C377.3,139.2,374.2,139.2,371.7,137.7z"/>
		</g>
		<g>
			<path class="st0" d="M317.5,230.6l-39.9-23.1c-2.5-1.4-4-4.1-4-7l-0.1-46.1c0-2.9,1.5-5.6,4.1-7l39.7-22.9c2.5-1.5,5.6-1.4,8.1,0
				l39.9,23.1c2.5,1.4,4,4.1,4,7l0.1,46.1c0,2.9-1.5,5.6-4.1,7l-39.7,22.9C323.1,232.1,320,232.1,317.5,230.6z"/>
			<path class="st0" d="M425.8,230.6l-39.9-23.1c-2.5-1.4-4-4.1-4-7l-0.1-46.1c0-2.9,1.5-5.6,4.1-7l39.7-22.9c2.5-1.5,5.6-1.4,8.1,0
				l39.9,23.1c2.5,1.4,4,4.1,4,7l0.1,46.1c0,2.9-1.5,5.6-4.1,7L434,230.6C431.4,232.1,428.3,232.1,425.8,230.6z"/>
		</g>
	</g>
	<g>
		<path class="st1" d="M45.5,199.6L5.6,176.5c-2.5-1.4-4-4.1-4-7l-0.1-46.1c0-2.9,1.5-5.6,4.1-7l39.7-22.9c2.5-1.5,5.6-1.4,8.1,0
			l39.9,23.1c2.5,1.4,4,4.1,4,7l0.1,46.1c0,2.9-1.5,5.6-4.1,7l-39.7,22.9C51.1,201.1,48,201.1,45.5,199.6z"/>
		<path class="st1" d="M153.9,199.6L114,176.5c-2.5-1.4-4-4.1-4-7l-0.1-46.1c0-2.9,1.5-5.6,4.1-7l39.7-22.9c2.5-1.5,5.6-1.4,8.1,0
			l39.9,23.1c2.5,1.4,4,4.1,4,7l0.1,46.1c0,2.9-1.5,5.6-4.1,7L162,199.7C159.5,201.1,156.4,201.1,153.9,199.6z"/>
	</g>
	<g>
		<path class="st1" d="M99.7,106.8L59.8,83.6c-2.5-1.4-4-4.1-4-7l-0.1-46.1c0-2.9,1.5-5.6,4.1-7L99.5,0.5c2.5-1.5,5.6-1.4,8.1,0
			l39.9,23.1c2.5,1.4,4,4.1,4,7l0.1,46.1c0,2.9-1.5,5.6-4.1,7l-39.7,22.9C105.3,108.2,102.2,108.2,99.7,106.8z"/>
		<path class="st1" d="M208,106.8l-39.9-23.1c-2.5-1.4-4-4.1-4-7L164,30.5c0-2.9,1.5-5.6,4.1-7l39.7-22.9c2.5-1.5,5.6-1.4,8.1,0
			l39.9,23.1c2.5,1.4,4,4.1,4,7l0.1,46.1c0,2.9-1.5,5.6-4.1,7l-39.7,22.9C213.7,108.2,210.6,108.2,208,106.8z"/>
	</g>
	<g>
		<path class="st1" d="M263.3,199.6l-39.9-23.1c-2.5-1.4-4-4.1-4-7l-0.1-46.1c0-2.9,1.5-5.6,4.1-7l39.7-22.9c2.5-1.5,5.6-1.4,8.1,0
			l39.9,23.1c2.5,1.4,4,4.1,4,7l0.1,46.1c0,2.9-1.5,5.6-4.1,7l-39.7,22.9C268.9,201.1,265.8,201.1,263.3,199.6z"/>
		<path class="st1" d="M371.7,199.6l-39.9-23.1c-2.5-1.4-4-4.1-4-7l-0.1-46.1c0-2.9,1.5-5.6,4.1-7l39.7-22.9c2.5-1.5,5.6-1.4,8.1,0
			l39.9,23.1c2.5,1.4,4,4.1,4,7l0.1,46.1c0,2.9-1.5,5.6-4.1,7l-39.7,22.9C377.3,201.1,374.2,201.1,371.7,199.6z"/>
	</g>
	<g>
		<path class="st1" d="M317.5,106.8l-39.9-23.1c-2.5-1.4-4-4.1-4-7l-0.1-46.1c0-2.9,1.5-5.6,4.1-7l39.7-22.9c2.5-1.5,5.6-1.4,8.1,0
			l39.9,23.1c2.5,1.4,4,4.1,4,7l0.1,46.1c0,2.9-1.5,5.6-4.1,7l-39.7,22.9C323.1,108.2,320,108.2,317.5,106.8z"/>
		<path class="st1" d="M425.8,106.8l-39.9-23.1c-2.5-1.4-4-4.1-4-7l-0.1-46.1c0-2.9,1.5-5.6,4.1-7l39.7-22.9c2.5-1.5,5.6-1.4,8.1,0
			l39.9,23.1c2.5,1.4,4,4.1,4,7l0.1,46.1c0,2.9-1.5,5.6-4.1,7L434,106.8C431.4,108.2,428.3,108.2,425.8,106.8z"/>
	</g>
</g>
</svg>
