<?xml version="1.0" standalone="no"?>
<!DOCTYPE svg PUBLIC "-//W3C//DTD SVG 20010904//EN"
 "http://www.w3.org/TR/2001/REC-SVG-20010904/DTD/svg10.dtd">
<svg version="1.0" xmlns="http://www.w3.org/2000/svg"
 width="922.000000pt" height="922.000000pt" viewBox="0 0 922.000000 922.000000"
 preserveAspectRatio="xMidYMid meet">
<metadata>
Created by potrace 1.11, written by Peter Selinger 2001-2013
</metadata>
<g transform="translate(0.000000,922.000000) scale(0.100000,-0.100000)"
fill="#000000" stroke="none">
<path d="M4511 8649 c-29 -5 -79 -19 -110 -32 -31 -13 -562 -315 -1179 -672
-987 -569 -1123 -651 -1120 -669 4 -17 134 -360 729 -1913 l8 -21 118 38 c146
48 532 158 838 240 127 34 231 63 233 65 2 2 -18 27 -45 57 -177 195 -304 412
-360 614 -25 90 -28 114 -28 274 0 148 4 188 22 261 97 380 368 658 743 761
97 26 319 36 427 18 213 -34 405 -131 555 -281 133 -132 220 -285 276 -487 25
-89 27 -111 26 -272 -1 -193 -12 -253 -77 -413 -56 -141 -183 -334 -309 -472
-28 -31 -49 -58 -47 -60 3 -2 146 -42 319 -89 315 -85 705 -198 812 -235 l57
-20 30 77 c16 42 181 473 366 957 186 484 339 883 341 886 7 11 -2299 1346
-2361 1367 -73 25 -191 34 -264 21z"/>
<path d="M4509 7156 c-178 -50 -328 -214 -375 -412 -21 -91 -14 -243 16 -334
49 -144 157 -324 250 -416 81 -80 140 -109 225 -109 59 0 79 5 124 30 106 59
216 195 306 380 58 118 78 198 78 315 0 311 -230 563 -513 559 -36 0 -86 -6
-111 -13z"/>
<path d="M1460 6929 c-96 -56 -195 -116 -220 -135 -60 -46 -133 -144 -167
-224 l-28 -65 -3 -1820 c-2 -1222 1 -1846 8 -1900 7 -58 21 -103 50 -163 61
-128 123 -183 354 -315 103 -60 191 -105 195 -102 3 4 200 513 437 1133 238
620 439 1131 447 1136 10 7 148 -35 468 -142 851 -283 1341 -416 1584 -429
128 -7 254 12 530 82 307 78 601 167 1129 342 342 114 473 153 484 146 9 -5
210 -518 449 -1139 238 -621 434 -1132 435 -1136 2 -4 84 39 183 96 211 121
289 189 343 298 65 132 62 19 54 2033 l-8 1830 -25 71 c-32 88 -86 170 -149
227 -56 51 -400 252 -410 240 -4 -4 -200 -513 -436 -1131 -350 -915 -433
-1124 -449 -1128 -11 -3 -142 38 -295 91 -668 233 -1229 398 -1570 461 -124
23 -162 26 -265 21 -249 -11 -730 -141 -1604 -433 -238 -80 -441 -142 -450
-139 -12 3 -145 342 -450 1143 -238 625 -436 1140 -439 1144 -4 4 -86 -38
-182 -93z"/>
<path d="M2477 2913 c-201 -527 -367 -964 -369 -971 -4 -20 2267 -1336 2352
-1363 95 -31 241 -30 333 2 68 24 2356 1336 2357 1352 0 8 -730 1918 -737
1926 -2 2 -69 -17 -151 -42 -184 -58 -530 -157 -817 -232 -121 -32 -222 -60
-224 -61 -2 -2 34 -47 79 -101 263 -315 372 -590 357 -902 -26 -529 -401 -927
-934 -993 -206 -25 -452 35 -651 159 -89 55 -231 192 -289 278 -126 187 -186
391 -185 620 1 294 109 546 360 845 44 52 79 96 78 97 -1 1 -130 36 -286 78
-335 90 -689 192 -814 235 -50 16 -90 30 -91 30 -1 0 -166 -431 -368 -957z"/>
<path d="M4567 3316 c-121 -33 -244 -165 -351 -377 -79 -156 -101 -242 -93
-373 7 -119 36 -207 98 -301 181 -270 521 -306 748 -78 112 112 165 248 164
418 -1 149 -53 295 -168 472 -125 191 -265 275 -398 239z"/>
</g>
</svg>
